<?xml version="1.0" encoding="utf-8"?>
<!-- Generator: Adobe Illustrator 25.4.1, SVG Export Plug-In . SVG Version: 6.00 Build 0)  -->
<svg version="1.1" id="Layer_1" xmlns="http://www.w3.org/2000/svg" xmlns:xlink="http://www.w3.org/1999/xlink" x="0px" y="0px"
	 viewBox="0 0 1000 1000" style="enable-background:new 0 0 1000 1000;" xml:space="preserve">
<style type="text/css">
	.st0{fill:#FEFEFE;}
	.st1{fill:#835FA8;}
</style>
<g>
	<path class="st0" d="M661.96,473.27c-3.71,42.08-19.81,79.04-46.05,111.8c-4.54,5.66-9.8,10.77-14.77,16.09
		c-13.59,14.54-27.22,29.05-40.8,43.61c-1.34,1.44-3.39,2.5-2.94,5.16c0.1,0.57-1.14,1.46-1.87,2.07
		c-7.72,6.44-14.92,13.41-21.7,20.83c-2.54,2.77-4.82,2.82-7.16,0.1c-6.75-7.88-13.82-15.43-21.68-22.22
		c-0.48-0.42-1.27-0.99-1.22-1.42c0.41-3.88-2.8-5.57-4.78-7.87c-23.99-27.82-48.06-55.58-72.1-83.36
		c-7.73-8.93-15.3-18.01-23.21-26.78c-14.45-16.02-18.96-34.66-16.29-55.77c3.74-29.54,27.74-52.43,54.1-57.06
		c25.38-4.45,47.67,2.11,65.12,21.47c18.42,20.44,36.24,41.41,54.23,62.22c9.63,11.15,5.1,27.76-8.69,31.72
		c-8,2.3-15.11,0.26-20.65-6.08c-15.12-17.31-30.16-34.69-45.22-52.04c-2.87-3.3-5.63-6.69-8.57-9.92
		c-12.34-13.58-35.89-13.73-47.16,3.12c-5.32,7.96-6.1,16.89-3.84,26.07c0.94,3.84,3.22,6.98,5.81,9.96
		c21.41,24.71,42.74,49.48,64.13,74.21c10.69,12.36,21.42,24.69,32.15,37.02c2.24,2.57,2.37,2.61,4.81,0
		c17.38-18.54,35.37-36.55,51.9-55.83c18.51-21.59,30.32-46.85,35.51-75.02c2.29-12.47,3.19-25.02,2.76-37.67
		c-1.19-34.96-13.07-65.71-36.44-91.84c-19.29-21.59-42.27-37.84-70.52-45.17c-50.76-13.17-96.83-3.86-136.86,30.91
		c-21.37,18.55-36.83,41.13-44.89,68.46c-3.31,11.21-5.29,22.65-5.68,34.36c-0.12,3.39-0.34,6.78-0.51,10.18
		c0.14,39.37,13.02,74.23,37.43,104.89c7.05,8.85,14.8,17.15,22.28,25.65c28.22,32.08,56.47,64.14,84.71,96.2
		c5.99,6.8,12.1,13.49,17.99,20.39c8.46,9.9,5.81,24.26-5.44,30.2c-8.12,4.29-17.61,2.46-24.2-4.89
		c-7.67-8.55-15.21-17.22-22.81-25.85c-18.07-20.53-36.14-41.06-54.21-61.59c-10.7-12.14-21.09-24.59-32.23-36.31
		c-8.71-9.17-16.56-18.95-23.87-29.18c-19.53-27.33-32.07-57.59-36.55-90.93c-5.57-41.49-0.78-81.6,20.08-118.42
		c29.07-51.31,71.98-85.14,130.74-95.3c69.67-12.04,128.3,9.73,175.24,62.46c22.95,25.77,36.91,56.03,42.43,90.08
		C663.22,438.98,663.48,456.09,661.96,473.27z"/>
	<path class="st1" d="M661.96,473.27c-3.71,42.08-19.81,79.04-46.05,111.8c-4.54,5.66-9.8,10.77-14.77,16.09
		c-13.59,14.54-27.22,29.05-40.8,43.61c-1.34,1.44-3.39,2.5-2.94,5.16c0.1,0.57-1.14,1.46-1.87,2.07
		c-7.72,6.44-14.92,13.41-21.7,20.83c-2.54,2.77-4.82,2.82-7.16,0.1c-6.75-7.88-13.82-15.43-21.68-22.22
		c-0.48-0.42-1.27-0.99-1.22-1.42c0.41-3.88-2.8-5.57-4.78-7.87c-23.99-27.82-48.06-55.58-72.1-83.36
		c-7.73-8.93-15.3-18.01-23.21-26.78c-14.45-16.02-18.96-34.66-16.29-55.77c3.74-29.54,27.74-52.43,54.1-57.06
		c25.38-4.45,47.67,2.11,65.12,21.47c18.42,20.44,36.24,41.41,54.23,62.22c9.63,11.15,5.1,27.76-8.69,31.72
		c-8,2.3-15.11,0.26-20.65-6.08c-15.12-17.31-30.16-34.69-45.22-52.04c-2.87-3.3-5.63-6.69-8.57-9.92
		c-12.34-13.58-35.89-13.73-47.16,3.12c-5.32,7.96-6.1,16.89-3.84,26.07c0.94,3.84,3.22,6.98,5.81,9.96
		c21.41,24.71,42.74,49.48,64.13,74.21c10.69,12.36,21.42,24.69,32.15,37.02c2.24,2.57,2.37,2.61,4.81,0
		c17.38-18.54,35.37-36.55,51.9-55.83c18.51-21.59,30.32-46.85,35.51-75.02c2.29-12.47,3.19-25.02,2.76-37.67
		c-1.19-34.96-13.07-65.71-36.44-91.84c-19.29-21.59-42.27-37.84-70.52-45.17c-50.76-13.17-96.83-3.86-136.86,30.91
		c-21.37,18.55-36.83,41.13-44.89,68.46c-3.31,11.21-5.29,22.65-5.68,34.36c-0.12,3.39-0.34,6.78-0.51,10.18
		c0.14,39.37,13.02,74.23,37.43,104.89c7.05,8.85,14.8,17.15,22.28,25.65c28.22,32.08,56.47,64.14,84.71,96.2
		c5.99,6.8,12.1,13.49,17.99,20.39c8.46,9.9,5.81,24.26-5.44,30.2c-8.12,4.29-17.61,2.46-24.2-4.89
		c-7.67-8.55-15.21-17.22-22.81-25.85c-18.07-20.53-36.14-41.06-54.21-61.59c-10.7-12.14-21.09-24.59-32.23-36.31
		c-8.71-9.17-16.56-18.95-23.87-29.18c-19.53-27.33-32.07-57.59-36.55-90.93c-5.57-41.49-0.78-81.6,20.08-118.42
		c29.07-51.31,71.98-85.14,130.74-95.3c69.67-12.04,128.3,9.73,175.24,62.46c22.95,25.77,36.91,56.03,42.43,90.08
		C663.22,438.98,663.48,456.09,661.96,473.27z"/>
</g>
</svg>
